<?xml version="1.0" encoding="UTF-8"?>
<svg id="Layer_1" data-name="Layer 1" xmlns="http://www.w3.org/2000/svg" viewBox="0 0 841.89 153.51">
  <defs>
    <style>
      .cls-1 {
        fill: #231f20;
      }
    </style>
  </defs>
  <path class="cls-1" d="M206.89,63.37c13.76,0,24.76,7.78,28.71,20.3l.35,1.11h18.65l-.49-1.96c-5.45-22.06-24.2-36.26-47.7-36.07-27.07.22-49.01,23.17-48.38,50.24.64,27.71,20.99,47.69,48.86,47.69,23.28,0,41.81-14.16,47.22-36.07l.49-1.96h-18.65l-.35,1.11c-3.96,12.71-14.69,20.29-28.71,20.29-18.51,0-30.95-12.89-30.95-32.08s12.73-32.59,30.95-32.59Z"/>
  <path class="cls-1" d="M311.95,47.09c-27.96,0-49.05,20.94-49.05,48.7s20.63,48.88,49.05,48.88,49.05-21.01,49.05-48.88-20.63-48.7-49.05-48.7ZM311.95,128.21c-18.22,0-30.95-13.26-30.95-32.25s12.73-32.25,30.95-32.25,30.95,12.89,30.95,32.08-12.44,32.42-30.95,32.42Z"/>
  <path class="cls-1" d="M418.8,47.26c-17.24,0-26.39,8.04-30.95,14.49v-12.25h-18.28v93.09h18.28v-52.67c0-21.39,19.5-26.21,26.33-26.21,22.32,0,24.73,20.02,24.73,28.62v50.26h18.28v-52.5c0-27.22-13.99-42.84-38.38-42.84Z"/>
  <path class="cls-1" d="M511.21,87.33c-13.59-2.82-20.96-5.55-20.96-11.91,0-4.67,3.82-12.57,18.15-12.57,11.29,0,18.06,4.86,20.14,14.46l.27,1.25h17.79l-.18-1.75c-1.51-14.45-12.47-29.9-38.73-29.9-12.32,0-21.83,3.31-28.24,9.83-7.07,7.18-7.7,15.6-7.65,18.85,0,17.25,13.76,21.67,36.41,26.91,14.48,3.47,20.83,5.78,20.83,13.31,0,9.65-9.83,13.09-19.04,13.09-17.56,0-20.59-12.14-21.02-14.57l-.23-1.31h-18.01l.18,1.74c2.1,20.66,21.32,29.9,39.44,29.9,22.13,0,36.42-11.33,36.42-28.85,0-20.89-18.8-24.9-35.57-28.48Z"/>
  <path class="cls-1" d="M602.45,47.09c-27.96,0-49.05,20.94-49.05,48.7s20.63,48.88,49.05,48.88,49.05-21.01,49.05-48.88-20.63-48.7-49.05-48.7ZM602.45,128.21c-18.22,0-30.95-13.26-30.95-32.25s12.73-32.25,30.95-32.25,30.95,12.89,30.95,32.08-12.44,32.42-30.95,32.42Z"/>
  <path class="cls-1" d="M834.62,95.79s0-.03,0-.05v-46.41h-18.1v7.87c-8.27-6.4-18.9-10.11-30.95-10.11-27.96,0-49.05,20.94-49.05,48.7s20.63,48.88,49.05,48.88c11.95,0,22.62-3.86,30.95-10.43v8.36h18.1v-46.75s0-.03,0-.05ZM785.57,128.21c-18.22,0-30.95-13.26-30.95-32.25s12.73-32.25,30.95-32.25,30.95,12.89,30.95,32.08-12.44,32.42-30.95,32.42Z"/>
  <rect class="cls-1" x="665.93" y="9.46" width="18.28" height="133.14"/>
  <rect class="cls-1" x="705.22" y="49.33" width="18.1" height="93.26"/>
  <path class="cls-1" d="M123.02,8.08H50.72c-1.64,0-3.22.64-4.41,1.78L10.49,44.51c-3.13,3.02-4.88,7.2-4.84,11.55l.31,37.99c.03,3.19,2.62,5.75,5.8,5.75h31.85c.14.01.26.03.44.03,3.32,0,4,2.12,4.11,3.42v24.75c0,.18.02.36.03.54v8.52c0,3.05,2.48,5.53,5.53,5.53h21.68c.29,0,.56-.04.83-.08l4.99.04c3.01.03,5.9-1.17,8.02-3.32l34.97-35.58c1.38-1.41.39-3.79-1.59-3.79l-71.32-.06s-.01,0-.02,0c-2.52,0-3.03-1.83-3.11-2.95V12.72c0-1.68,2.04-2.5,3.21-1.3l30.6,31.65c4.06,4.2,9.65,6.57,15.48,6.57h25.32c1.71,0,3.09-1.38,3.1-3.08l.22-35.36c.01-1.72-1.38-3.12-3.1-3.12Z"/>
  <circle class="cls-1" cx="714.27" cy="23.55" r="10.9"/>
</svg>