<?xml version="1.0" encoding="UTF-8"?>
<svg id="Layer_1" data-name="Layer 1" xmlns="http://www.w3.org/2000/svg" viewBox="0 0 688.59 153.51">
  <defs>
    <style>
      .cls-1 {
        fill: #fff;
      }
    </style>
  </defs>
  <path class="cls-1" d="M53.59,63.37c13.76,0,24.76,7.78,28.71,20.3l.35,1.11h18.65l-.49-1.96c-5.45-22.06-24.2-36.26-47.7-36.07-27.07.22-49.01,23.17-48.38,50.24.64,27.71,20.99,47.69,48.86,47.69,23.28,0,41.81-14.16,47.22-36.07l.49-1.96h-18.65l-.35,1.11c-3.96,12.71-14.69,20.29-28.71,20.29-18.51,0-30.95-12.89-30.95-32.08s12.73-32.59,30.95-32.59Z"/>
  <path class="cls-1" d="M158.66,47.09c-27.96,0-49.05,20.94-49.05,48.7s20.63,48.88,49.05,48.88,49.05-21.01,49.05-48.88-20.63-48.7-49.05-48.7ZM158.66,128.21c-18.22,0-30.95-13.26-30.95-32.25s12.73-32.25,30.95-32.25,30.95,12.89,30.95,32.08-12.44,32.42-30.95,32.42Z"/>
  <path class="cls-1" d="M265.51,47.26c-17.24,0-26.39,8.04-30.95,14.49v-12.25h-18.28v93.09h18.28v-52.67c0-21.39,19.5-26.21,26.33-26.21,22.32,0,24.73,20.02,24.73,28.62v50.26h18.28v-52.5c0-27.22-13.99-42.84-38.38-42.84Z"/>
  <path class="cls-1" d="M357.92,87.33c-13.59-2.82-20.96-5.55-20.96-11.91,0-4.67,3.82-12.57,18.15-12.57,11.29,0,18.06,4.86,20.14,14.46l.27,1.25h17.79l-.18-1.75c-1.51-14.45-12.47-29.9-38.73-29.9-12.32,0-21.83,3.31-28.24,9.83-7.07,7.18-7.7,15.6-7.65,18.85,0,17.25,13.76,21.67,36.41,26.91,14.48,3.47,20.83,5.78,20.83,13.31,0,9.65-9.83,13.09-19.04,13.09-17.56,0-20.59-12.14-21.02-14.57l-.23-1.31h-18.01l.18,1.74c2.1,20.66,21.32,29.9,39.44,29.9,22.13,0,36.42-11.33,36.42-28.85,0-20.89-18.8-24.9-35.57-28.48Z"/>
  <path class="cls-1" d="M449.15,47.09c-27.96,0-49.05,20.94-49.05,48.7s20.63,48.88,49.05,48.88,49.05-21.01,49.05-48.88-20.63-48.7-49.05-48.7ZM449.15,128.21c-18.22,0-30.95-13.26-30.95-32.25s12.73-32.25,30.95-32.25,30.95,12.89,30.95,32.08-12.44,32.42-30.95,32.42Z"/>
  <path class="cls-1" d="M681.32,95.79s0-.03,0-.05v-46.41h-18.1v7.87c-8.27-6.4-18.9-10.11-30.95-10.11-27.96,0-49.05,20.94-49.05,48.7s20.63,48.88,49.05,48.88c11.95,0,22.62-3.86,30.95-10.43v8.36h18.1v-46.75s0-.03,0-.05ZM632.27,128.21c-18.22,0-30.95-13.26-30.95-32.25s12.73-32.25,30.95-32.25,30.95,12.89,30.95,32.08-12.44,32.42-30.95,32.42Z"/>
  <rect class="cls-1" x="512.64" y="9.46" width="18.28" height="133.14"/>
  <rect class="cls-1" x="551.92" y="49.33" width="18.1" height="93.26"/>
  <circle class="cls-1" cx="560.97" cy="23.55" r="10.9"/>
</svg>